<?xml version="1.0" encoding="UTF-8"?>
<svg xmlns="http://www.w3.org/2000/svg" width="32" height="32" viewBox="0 0 32 32" fill="none">
  <path d="M18.0097 15.25L18.0096 15.2498L18.0096 15.2498C17.8722 14.9788 17.9798 14.6477 18.2505 14.5102L18.0097 15.25ZM18.0097 15.25C18.107 15.4404 18.3006 15.5502 18.5007 15.5502C18.5843 15.5502 18.6701 15.5309 18.7499 15.4903L18.0097 15.25ZM18.2508 14.51L18.2505 14.5102L18.7272 15.4457C18.7566 15.4307 21.6997 13.9357 23.1511 13.4772C23.4142 13.3937 23.5601 13.1127 23.4766 12.8497L23.5243 12.8347C23.5243 12.8346 23.5243 12.8346 23.5243 12.8346C23.4329 12.5453 23.126 12.3843 22.8342 12.4755L22.8341 12.4756C21.3012 12.9603 18.3767 14.446 18.2508 14.51Z" fill="white" stroke="white" stroke-width="0.1"></path>
  <path d="M23.1663 7.52486L23.1662 7.52488C21.72 7.98171 18.7825 9.47365 18.7499 9.49025C18.7499 9.49025 18.7498 9.49026 18.7498 9.49026L18.7272 9.4457L23.1663 7.52486ZM23.1663 7.52486C23.4555 7.43303 23.6161 7.12394 23.5243 6.83459L23.1663 7.52486Z" fill="white" stroke="white" stroke-width="0.1"></path>
  <path d="M16.5509 29.95H16.5009V28.8495C17.2299 28.5945 19.1289 28 21.0009 28C25.3563 28 28.3138 28.9645 28.3433 28.9745C28.4938 29.0245 28.6618 28.9995 28.7933 28.9055L3.50092 30C2.67393 30 2.00093 29.327 2.00093 28.5001V9.00021C2.00093 8.72424 1.77693 8.50024 1.50095 8.50024C1.22498 8.50024 1.00098 8.72424 1.00098 9.00021V28.5001C1.00098 29.8785 2.12245 31.0001 3.50098 31.0001H28.5008C29.8793 31.0001 31.0008 29.8786 31.0008 28.5001V9.00021C31.0007 8.72418 30.7773 8.50018 30.5008 8.50018C30.2243 8.50018 30.0008 8.72418 30.0008 9.00016V28.5C30.0008 29.327 29.3278 30 28.5008 30H16.5509V29.95ZM16.5509 29.95H28.5008C29.3002 29.95 29.9508 29.2994 29.9508 28.5V9.00016C29.9508 8.6966 30.1966 8.45018 30.5008 8.45018C30.8049 8.45018 31.0507 8.6966 31.0508 9.00021V28.5001C31.0508 29.9062 29.9069 31.0501 28.5008 31.0501H3.50098C2.09484 31.0501 0.950977 29.9061 0.950977 28.5001V9.00021C0.950977 8.69663 1.19736 8.45024 1.50095 8.45024C1.80454 8.45024 2.05093 8.69663 2.05093 9.00021V28.5001C2.05093 29.2994 2.70155 29.95 3.50092 29.95H15.4508M16.5509 29.95V28.885C17.3018 28.6246 19.1655 28.05 21.0009 28.05C23.1749 28.05 25.0001 28.2908 26.2851 28.5327C26.9276 28.6536 27.435 28.7748 27.7834 28.8664C27.9576 28.9122 28.0921 28.9505 28.1838 28.9777C28.2296 28.9913 28.2648 29.0021 28.2889 29.0096L28.3167 29.0184L28.3243 29.0209L28.3264 29.0216L28.327 29.0218L28.3272 29.0218L28.3273 29.0219L28.3275 29.0219C28.4932 29.077 28.6779 29.0494 28.8224 28.9461L28.8225 28.946C28.9661 28.8426 29.0508 28.6765 29.0508 28.4999V6.50021C29.0508 6.24235 28.8721 6.01894 28.62 5.96336L28.6198 5.96332L28.6189 5.96313L28.6155 5.96236L28.6018 5.95935L28.548 5.94771C28.5007 5.93756 28.4306 5.92275 28.3395 5.90409C28.1575 5.86678 27.8917 5.81408 27.5563 5.7525C27.2586 5.69749 26.9711 5.89549 26.9161 6.1936L26.9161 6.19364C26.8611 6.49274 27.0585 6.77934 27.3572 6.83433L27.3662 6.78515L27.3572 6.83433C27.5922 6.87754 27.792 6.91609 27.9508 6.94768V27.7708C26.7863 27.4701 24.2966 26.95 21.0008 26.95C18.8336 26.95 16.7066 27.6547 16.022 27.9041C15.4126 27.6368 13.6407 26.95 11.5008 26.95C8.10837 26.95 5.30419 27.5003 4.05089 27.7934V6.9264C5.0825 6.67491 7.99799 6.05018 11.5008 6.05018C13.2847 6.05018 14.8198 6.59664 15.4508 6.85754V26.5C15.4508 26.698 15.5575 26.8812 15.7297 26.9786C15.9019 27.0764 16.114 27.0736 16.2839 26.9715L15.4508 29.95M15.4508 29.95V28.8579M15.4508 29.95L16.2841 26.9714L16.2851 26.9707C16.3879 26.9095 21.3074 23.9775 25.6745 22.522L25.6746 22.522C25.8994 22.4467 26.0507 22.2372 26.0507 22.0001V1.50021C26.0507 1.31981 25.9622 1.15097 25.8138 1.04819C25.6662 0.945228 25.477 0.921705 25.3073 0.984905L25.3072 0.984946C21.3437 2.47154 17.3351 4.9559 17.2122 5.03206L17.2096 5.03367L17.2093 5.03384C16.952 5.19491 16.8732 5.53419 17.0344 5.79169C17.195 6.04916 17.5344 6.12776 17.7923 5.96665L17.7926 5.96644C17.8285 5.94365 21.3035 3.78166 24.9507 2.30537V21.6066C21.5982 22.7761 18.109 24.6619 16.5508 25.5457V6.50021C16.5508 6.29176 16.4331 6.10146 16.2467 6.00804L16.2464 6.00791C16.1582 5.96432 14.1009 4.95023 11.5008 4.95023C6.97705 4.95023 3.49894 5.92873 3.34966 5.97162M3.34966 5.97162C3.34968 5.97161 3.3497 5.9716 3.34972 5.9716L3.3634 6.01969L3.34959 5.97163C3.34961 5.97163 3.34964 5.97162 3.34966 5.97162ZM3.34966 5.97162C3.11362 6.03876 2.95088 6.25495 2.95088 6.50021V28.5001C2.95088 28.6723 3.03229 28.835 3.16917 28.9389L3.16925 28.939C3.26608 29.0121 3.38269 29.0501 3.50092 29.0501C3.55165 29.0501 3.60231 29.0429 3.65179 29.0286M3.65179 29.0286L3.65278 29.0283C3.74371 29.0031 7.17416 28.0501 11.5008 28.0501C13.2895 28.0501 14.8231 28.5979 15.4508 28.8579M3.65179 29.0286L3.65117 29.0288L3.63791 28.9806L3.65179 29.0286ZM15.4508 28.8579V28.8246H15.5008L15.4815 28.8707C15.4715 28.8665 15.4613 28.8622 15.4508 28.8579Z" fill="white" stroke="white" stroke-width="0.1"></path>
  <path d="M18.0097 12.25L18.0096 12.2498L18.0096 12.2498C17.8722 11.9788 17.9798 11.6477 18.2505 11.5102L18.0097 12.25ZM18.0097 12.25C18.107 12.4404 18.3006 12.5502 18.5007 12.5502C18.5843 12.5502 18.6701 12.5309 18.7499 12.4903L18.0097 12.25ZM18.2508 11.51L18.2505 11.5102L18.7272 12.4457C18.7566 12.4307 21.6997 10.9357 23.1511 10.4772C23.4142 10.3937 23.5601 10.1127 23.4766 9.84973L23.5243 9.83468C23.5243 9.83465 23.5243 9.83462 23.5243 9.8346C23.4329 9.54533 23.126 9.38428 22.8342 9.47552L22.8341 9.47557C21.3012 9.9603 18.3768 11.446 18.2508 11.51Z" fill="white" stroke="white" stroke-width="0.1"></path>
  <path d="M18.0097 18.25L18.0096 18.2498L18.0096 18.2498C17.8722 17.9788 17.9798 17.6477 18.2505 17.5102L18.0097 18.25ZM18.0097 18.25C18.107 18.4404 18.3006 18.5502 18.5007 18.5502C18.5843 18.5502 18.6701 18.5309 18.7499 18.4903L18.0097 18.25ZM18.2508 17.51L18.2505 17.5102L23.1511 16.4772C23.4142 16.3937 23.5601 16.1127 23.4766 15.8497L23.5243 15.8347C23.5243 15.8346 23.5243 15.8346 23.5243 15.8346C23.4329 15.5453 23.126 15.3843 22.8342 15.4755L22.8341 15.4756C21.3012 15.9603 18.3767 17.4461 18.2508 17.51Z" fill="white" stroke="white" stroke-width="0.1"></path>
  <path d="M6.35769 10.4689L6.35771 10.4689C6.50546 10.4294 10.0248 9.50292 13.1255 10.2305L6.35769 10.4689ZM6.35769 10.4689C6.06457 10.5476 5.89023 10.8489 5.96885 11.1426L5.96886 11.1427M6.35769 10.4689L5.96886 11.1427M5.96886 11.1427C6.03488 11.3885 6.25708 11.5502 6.49967 11.5502C6.54698 11.5502 6.59474 11.5441 6.64244 11.5315L6.64244 11.5315M5.96886 11.1427L6.64244 11.5315M6.64244 11.5315L6.64331 11.5313M6.64244 11.5315L6.64331 11.5313M6.64331 11.5313C6.64325 11.5313 6.64346 11.5313 6.64411 11.5311L6.64651 11.5304L6.65509 11.5282L6.68642 11.5202C6.71347 11.5134 6.75263 11.5037 6.80295 11.4918C6.90361 11.4681 7.0489 11.4353 7.23126 11.3983C7.59602 11.3243 8.1089 11.2335 8.70939 11.1637C9.91118 11.0241 11.4603 10.9695 12.8747 11.3014L12.8748 11.3014M6.64331 11.5313L12.8748 11.3014M12.8748 11.3014C13.169 11.3701 13.4665 11.1871 13.5358 10.8911M12.8748 11.3014L13.5358 10.8911M13.5358 10.8911C13.6051 10.5957 13.4213 10.2998 13.1255 10.2305L13.5358 10.8911ZM6.62969 11.4832C6.6632 11.4737 10.0412 10.5852 12.8862 11.2527L6.01715 11.1297C6.07715 11.3532 6.27912 11.5002 6.49967 11.5002C6.54268 11.5002 6.58615 11.4947 6.62969 11.4832Z" fill="white" stroke="white" stroke-width="0.1"></path>
  <path d="M13.5358 13.8911C13.6051 13.5957 13.4213 13.2998 13.1255 13.2305C10.0248 12.5035 6.50547 13.4294 6.35771 13.4689L6.35769 13.4689C6.06456 13.5476 5.89023 13.849 5.96885 14.1426L5.96886 14.1427C6.03488 14.3886 6.25708 14.5502 6.49967 14.5502C6.54698 14.5502 6.59474 14.5441 6.64244 14.5315L6.64244 14.5316L6.6433 14.5313C6.64329 14.5313 6.64351 14.5313 6.64411 14.5311L6.64651 14.5305L6.65509 14.5282L6.68642 14.5202C6.71347 14.5134 6.75263 14.5037 6.80295 14.4919C6.90361 14.4681 7.0489 14.4353 7.23126 14.3983C7.59602 14.3243 8.10889 14.2335 8.70939 14.1637C9.91118 14.0242 11.4603 13.9695 12.8747 14.3014L12.8748 14.3014C13.169 14.3702 13.4665 14.1871 13.5358 13.8911ZM13.5358 13.8911L13.4872 13.8797L13.5358 13.8911C13.5358 13.8911 13.5358 13.8911 13.5358 13.8911Z" fill="white" stroke="white" stroke-width="0.1"></path>
  <path d="M18.0097 21.25L18.0096 21.2498L18.0096 21.2498C17.8722 20.9788 17.9798 20.6477 18.2505 20.5102L18.0097 21.25ZM18.0097 21.25C18.107 21.4404 18.3006 21.5502 18.5007 21.5502C18.5843 21.5502 18.6701 21.5309 18.7499 21.4902L18.0097 21.25ZM18.2508 20.51L18.2505 20.5102L18.7272 21.4457C18.7566 21.4307 21.6997 19.9357 23.1511 19.4772C23.4142 19.3937 23.5601 19.1127 23.4766 18.8497L23.5243 18.8347C23.5243 18.8346 23.5243 18.8346 23.5243 18.8346C23.4329 18.5454 23.126 18.3843 22.8342 18.4755L22.8341 18.4756C21.3012 18.9603 18.3767 20.446 18.2508 20.51Z" fill="white" stroke="white" stroke-width="0.1"></path>
  <path d="M13.5358 16.8909C13.6051 16.5955 13.4213 16.2997 13.1255 16.2304C10.0253 15.5034 6.50663 16.4284 6.35762 16.4688C6.06454 16.5475 5.89023 16.8489 5.96885 17.1425L5.96886 17.1425C6.03486 17.3883 6.257 17.5506 6.49967 17.5506C6.54733 17.5506 6.59512 17.5439 6.6425 17.5314L6.6425 17.5314L6.6433 17.5312C6.64329 17.5312 6.64351 17.5311 6.64411 17.5309L6.64651 17.5303L6.65509 17.528L6.68642 17.52C6.71347 17.5132 6.75263 17.5036 6.80295 17.4917C6.90361 17.4679 7.0489 17.4351 7.23126 17.3982C7.59602 17.3242 8.10889 17.2333 8.70939 17.1636C9.91118 17.024 11.4603 16.9694 12.8747 17.3012L12.8748 17.3012C13.169 17.37 13.4665 17.1869 13.5358 16.8909ZM13.5358 16.8909L13.4872 16.8795L13.5358 16.8909C13.5358 16.8909 13.5358 16.8909 13.5358 16.8909Z" fill="white" stroke="white" stroke-width="0.1"></path>
  <path d="M6.35769 22.4688L6.35771 22.4688C6.50546 22.4292 10.0248 21.5028 13.1255 22.2304C13.1255 22.2304 13.1255 22.2304 13.1255 22.2304L6.35769 22.4688ZM6.35769 22.4688C6.06456 22.5474 5.89023 22.8489 5.96885 23.1425L5.96886 23.1425C6.03486 23.3883 6.257 23.5506 6.49967 23.5506C6.54733 23.5506 6.59512 23.544 6.6425 23.5314L6.6425 23.5314L6.64331 23.5312C6.64325 23.5312 6.64346 23.5311 6.64411 23.531L6.64651 23.5303L6.65509 23.5281L6.68642 23.5201C6.71347 23.5133 6.75263 23.5036 6.80295 23.4917C6.90361 23.4679 7.0489 23.4352 7.23126 23.3982C7.59602 23.3242 8.10889 23.2334 8.70939 23.1636C9.91118 23.024 11.4603 22.9694 12.8747 23.3012L12.8749 23.3013C13.169 23.3694 13.4665 23.187 13.5358 22.891M6.35769 22.4688L13.5358 22.891M13.5358 22.891C13.5358 22.891 13.5358 22.891 13.5358 22.891L13.4872 22.8796L13.5358 22.891Z" fill="white" stroke="white" stroke-width="0.1"></path>
  <path d="M5.96886 20.1426L5.96885 20.1426C5.89023 19.849 6.06454 19.5476 6.35762 19.4689L5.96886 20.1426ZM5.96886 20.1426C6.03486 20.3884 6.257 20.5507 6.49967 20.5507C6.54733 20.5507 6.59512 20.544 6.6425 20.5315L6.6425 20.5315M5.96886 20.1426L6.6425 20.5315M6.6425 20.5315L6.6433 20.5313M6.6425 20.5315L6.6433 20.5313M6.6433 20.5313C6.64329 20.5313 6.64332 20.5313 6.64339 20.5312C6.6435 20.5312 6.64373 20.5311 6.64411 20.531L6.64651 20.5304L6.65509 20.5282L6.68642 20.5202C6.71347 20.5133 6.75263 20.5037 6.80295 20.4918C6.90361 20.468 7.0489 20.4353 7.23126 20.3983C7.59602 20.3243 8.10889 20.2334 8.70939 20.1637C9.91118 20.0241 11.4603 19.9695 12.8747 20.3013L12.8748 20.3013M6.6433 20.5313L12.8748 20.3013M12.8748 20.3013C13.169 20.3701 13.4665 20.187 13.5358 19.8911M12.8748 20.3013L13.1255 19.2305C13.4213 19.2998 13.6051 19.5956 13.5358 19.8911M13.5358 19.8911L13.4872 19.8796L13.5358 19.891C13.5358 19.891 13.5358 19.891 13.5358 19.8911ZM6.62969 20.4832C6.6632 20.4737 10.0412 19.5852 12.8862 20.2526L6.01715 20.1297C6.07715 20.3531 6.27912 20.5007 6.49967 20.5007C6.54268 20.5007 6.58615 20.4947 6.62969 20.4832Z" fill="white" stroke="white" stroke-width="0.1"></path>
</svg>
