<?xml version="1.0" encoding="UTF-8"?>
<svg xmlns="http://www.w3.org/2000/svg" width="41" height="29" viewBox="0 0 41 29" fill="none">
  <path d="M27.7834 8.07872C26.3236 8.07872 24.9042 8.07872 23.4849 8.07872C21.2951 8.07872 19.0951 8.06852 16.9053 8.07872C14.0159 8.08891 11.9274 10.1692 11.9072 13.0857C11.897 14.187 11.897 15.2883 11.9173 16.3999C11.9173 16.7058 11.8261 16.8383 11.5422 16.9403C10.204 17.4196 8.86573 17.9193 7.52749 18.4088C6.95976 18.6229 6.72658 19.0206 6.90907 19.4795C7.08142 19.918 7.48694 20.0506 8.05468 19.8364C9.12932 19.4489 10.204 19.0512 11.2786 18.6535C11.4712 18.5821 11.6638 18.5209 11.9173 18.4394C11.9173 19.6223 11.9173 20.7542 11.9173 21.8861C11.9173 22.3552 12.0592 22.9466 11.8261 23.2628C11.603 23.5789 11.0049 23.6401 10.5588 23.8032C9.82885 24.0786 9.0989 24.3539 8.35882 24.619C6.6252 25.2207 4.922 24.4151 4.2833 22.6917C3.4317 20.3565 2.59023 18.0213 1.73863 15.686C1.23172 14.2788 0.724818 12.8817 0.217912 11.4745C-0.420789 9.68992 0.380122 7.96655 2.15429 7.31391C8.60213 4.94809 15.0601 2.59247 21.5181 0.22666C23.2923 -0.415781 24.9853 0.338833 25.6443 2.0928C26.3641 3.98953 27.0332 5.90666 27.7226 7.81358C27.753 7.87477 27.7632 7.95635 27.7834 8.07872ZM6.42244 15.5841C6.52382 15.5739 6.58465 15.5841 6.64548 15.5637C7.55791 15.2373 8.48048 14.9416 9.36249 14.5541C9.89981 14.3196 10.1026 13.6873 9.92009 13.0959C9.74774 12.5554 9.55512 12.0251 9.34222 11.5051C9.06849 10.8422 8.45006 10.5363 7.77081 10.7607C6.9699 11.0258 6.17912 11.3113 5.39849 11.6274C4.76993 11.8824 4.4962 12.5452 4.71924 13.1877C4.90172 13.7281 5.09435 14.2584 5.29711 14.7785C5.49987 15.3087 5.9054 15.5535 6.42244 15.5841Z" fill="white"></path>
  <path d="M27.165 9.79181C30.6018 9.79181 34.0285 9.78162 37.4653 9.79181C39.4119 9.80201 40.6994 11.0971 40.7095 13.055C40.7197 17.0116 40.7197 20.9683 40.7095 24.9249C40.7095 26.8318 39.3713 28.1575 37.4755 28.1575C30.612 28.1677 23.7383 28.1677 16.8748 28.1575C14.9384 28.1575 13.6104 26.7808 13.6104 24.8433C13.6104 20.8969 13.6104 16.9606 13.6104 13.0142C13.6104 11.4234 14.5937 10.1793 16.1145 9.8428C16.3983 9.78162 16.7025 9.78162 17.0066 9.78162C20.3928 9.79181 23.7789 9.79181 27.165 9.79181ZM15.79 18.2251C15.7799 18.3373 15.7596 18.3985 15.7596 18.4597C15.7596 20.6215 15.7495 22.7834 15.7596 24.9453C15.7596 25.6591 16.1652 26.0058 16.9052 26.0058C23.7079 26.0058 30.5106 26.0058 37.3234 26.0058C38.2257 26.0058 38.5501 25.6897 38.5501 24.7923C38.5501 22.7528 38.5501 20.7235 38.5501 18.684C38.5501 18.5311 38.5298 18.3781 38.5197 18.2149C30.9364 18.2251 23.3835 18.2251 15.79 18.2251ZM38.5501 14.3297C38.5501 13.9218 38.5501 13.5547 38.5501 13.1978C38.5501 12.2698 38.2358 11.9537 37.3031 11.9537C33.8055 11.9537 30.3078 11.9537 26.8102 11.9537C23.5052 11.9537 20.19 11.9537 16.885 11.9537C16.2463 11.9537 15.8407 12.2392 15.7799 12.8103C15.7292 13.2997 15.7698 13.8096 15.7698 14.3297C23.3835 14.3297 30.9364 14.3297 38.5501 14.3297Z" fill="white"></path>
  <path d="M23.8901 21.7129C22.1362 21.7129 20.3823 21.7129 18.6284 21.7129C18.081 21.7129 17.7464 21.4171 17.7464 20.948C17.7363 20.5096 18.0708 20.2036 18.5879 20.2036C20.0173 20.1934 21.4367 20.2036 22.8662 20.2036C24.9952 20.2036 27.1242 20.2036 29.2633 20.2036C29.8412 20.2036 30.1757 20.5198 30.1453 21.0092C30.1149 21.4375 29.8108 21.7129 29.3039 21.7129C27.4993 21.7129 25.6947 21.7129 23.8901 21.7129Z" fill="white"></path>
</svg>
