<?xml version="1.0" encoding="UTF-8"?>
<svg xmlns="http://www.w3.org/2000/svg" width="30" height="30" viewBox="0 0 30 30" fill="none">
  <g clip-path="url(#clip0)">
    <path d="M28.5001 26.9242V26.4242C28.4959 25.7923 28.096 25.2308 27.5001 25.0204V24.4243C27.4981 23.7907 27.0976 23.2269 26.5 23.0164V15.3322C27.0976 15.1217 27.4981 14.558 27.5001 13.9243V13.0425L28.4112 11.2203L29.8535 9.77786C30.0487 9.58292 30.049 9.26664 29.8541 9.07141C29.8259 9.04316 29.7944 9.01838 29.7603 8.99764L15.2605 0.149306C15.1007 0.0516311 14.8997 0.0516311 14.74 0.149306L0.240112 8.99764C0.00445015 9.14107 -0.0703733 9.44839 0.0730628 9.68406C0.0938047 9.71816 0.11859 9.74968 0.146832 9.77786L1.58916 11.2203L2.50028 13.0425V13.9243C2.50222 14.5579 2.9027 15.1217 3.50029 15.3321V23.0163C2.9027 23.2268 2.50228 23.7906 2.50028 24.4242V25.0204C1.90439 25.2308 1.50444 25.7923 1.50028 26.4242V26.9242C0.672237 26.925 0.00116893 27.5961 0.000290036 28.4241V29.4242C0.000231443 29.7002 0.22394 29.9241 0.500031 29.9241C0.500148 29.9241 0.500207 29.9241 0.500266 29.9241H29.5001C29.7762 29.9242 30 29.7005 30.0001 29.4244C30.0001 29.4243 30.0001 29.4242 30.0001 29.4242V28.4241C29.9992 27.5962 29.3281 26.9251 28.5001 26.9242ZM26.5001 13.9243C26.4998 14.2004 26.2762 14.4241 26.0001 14.4243H23.0002C22.7241 14.424 22.5004 14.2004 22.5002 13.9243V13.4244H26.5002V13.9243H26.5001ZM2.07455 10.2916L1.30305 9.52005L15.0002 1.16174L28.6974 9.52005L27.9259 10.2916L15.2624 2.49866C15.1016 2.39952 14.8988 2.39952 14.738 2.49866L2.07455 10.2916ZM17.0002 7.17439C17.0002 8.27893 16.1047 9.17435 15.0002 9.17435C13.8957 9.17435 13.0002 8.27893 13.0002 7.17439C13.0002 6.06985 13.8957 5.17443 15.0002 5.17443C16.1043 5.1756 16.999 6.07032 17.0002 7.17439ZM3.3094 12.4243L2.80942 11.4243H27.191L26.6911 12.4243H3.3094ZM21.5001 13.4244V13.9243C21.4998 14.2004 21.2762 14.4241 21.0001 14.4243H18.0002C17.7241 14.424 17.5004 14.2004 17.5002 13.9243V13.4244H21.5001ZM12.5003 13.4244V13.9243C12.5 14.2004 12.2763 14.4241 12.0003 14.4243H9.00032C8.72429 14.424 8.50058 14.2004 8.50034 13.9243V13.4244H12.5003ZM7.50028 13.4244V13.9243C7.49998 14.2004 7.27633 14.4241 7.0003 14.4243H4.00033C3.7243 14.424 3.50059 14.2004 3.50035 13.9243V13.4244H7.50028ZM7.50028 24.9243H3.50029V24.4243C3.50059 24.1483 3.72424 23.9245 4.00027 23.9243H7.00024C7.27627 23.9246 7.49998 24.1483 7.50022 24.4243V24.9243H7.50028ZM7.50028 23.0164V15.3322C7.6849 15.2666 7.85476 15.1654 8.00025 15.0342C8.14574 15.1654 8.31566 15.2666 8.50023 15.3321V23.0163C8.3156 23.0819 8.14574 23.1832 8.00025 23.3144C7.85476 23.1832 7.6849 23.082 7.50028 23.0164ZM12.5003 24.9243H8.50029V24.4243C8.50058 24.1483 8.72429 23.9245 9.00026 23.9243H12.0002C12.2763 23.9246 12.5 24.1483 12.5002 24.4243V24.9243H12.5003ZM16.5002 24.4242V24.9242H13.5002V24.4242C13.4983 23.7907 13.0978 23.2269 12.5002 23.0163V15.3322C13.0978 15.1217 13.4982 14.558 13.5002 13.9243V13.4244H16.5002V13.9243C16.5021 14.5579 16.9026 15.1217 17.5002 15.3321V23.0163C16.9026 23.2269 16.5021 23.7907 16.5002 24.4242ZM21.5001 24.9243H17.5002V24.4243C17.5005 24.1483 17.7241 23.9245 18.0002 23.9243H21.0001C21.2762 23.9246 21.4999 24.1483 21.5001 24.4243V24.9243ZM21.5001 23.0164V15.3322C21.6847 15.2666 21.8546 15.1654 22.0001 15.0342C22.1456 15.1654 22.3155 15.2666 22.5001 15.3321V23.0163C22.3154 23.0819 22.1456 23.1832 22.0001 23.3144C21.8547 23.1832 21.6847 23.082 21.5001 23.0164ZM26.5001 24.9243H22.5001V24.4243C22.5004 24.1483 22.7241 23.9245 23.0001 23.9243H26.0001C26.2761 23.9246 26.4998 24.1483 26.5 24.4243V24.9243H26.5001Z" fill="white"></path>
    <path d="M15 8.17434C15.5523 8.17434 16 7.72662 16 7.17433C16 6.62204 15.5523 6.17432 15 6.17432C14.4477 6.17432 14 6.62204 14 7.17433C14 7.72662 14.4477 8.17434 15 8.17434Z" fill="white"></path>
  </g>
  <defs>
    <clipPath id="clip0">
      <rect width="30" height="30" fill="white"></rect>
    </clipPath>
  </defs>
</svg>
