<?xml version="1.0" encoding="UTF-8"?>
<svg xmlns="http://www.w3.org/2000/svg" width="33" height="33" viewBox="0 0 33 33" fill="none">
  <path d="M14.8985 28.8298C14.6315 28.8298 14.4151 29.0462 14.4151 29.3132V29.8472C14.4151 30.1141 14.6315 30.3306 14.8985 30.3306C15.1655 30.3306 15.3819 30.1141 15.3819 29.8472V29.3132C15.3819 29.0462 15.1655 28.8298 14.8985 28.8298Z" fill="white"></path>
  <path d="M18.1015 28.8298C17.8345 28.8298 17.6181 29.0462 17.6181 29.3132V29.8472C17.6181 30.1141 17.8345 30.3306 18.1015 30.3306C18.3685 30.3306 18.5849 30.1141 18.5849 29.8472V29.3132C18.5849 29.0462 18.3685 28.8298 18.1015 28.8298Z" fill="white"></path>
  <path d="M17.5676 1.33472C17.3007 1.33472 17.0842 1.55109 17.0842 1.81812V2.66928H15.9156V1.81812C15.9156 1.55109 15.6991 1.33472 15.4322 1.33472C15.1652 1.33472 14.9488 1.55109 14.9488 1.81812V3.15017C14.9488 3.15101 14.9486 3.15184 14.9486 3.15268C14.9486 3.15352 14.9488 3.15436 14.9488 3.1552V4.48751C14.9488 4.75454 15.1652 4.9709 15.4322 4.9709C15.6991 4.9709 15.9156 4.75454 15.9156 4.48751V3.63608H17.0842V4.48751C17.0842 4.75454 17.3007 4.9709 17.5676 4.9709C17.8346 4.9709 18.051 4.75454 18.051 4.48751V1.81812C18.051 1.55109 17.8346 1.33472 17.5676 1.33472Z" fill="white"></path>
  <path d="M31.4489 16.0165H25.5257V7.95771C25.5257 7.69068 25.3093 7.47431 25.0423 7.47431H24.9918V6.30564H25.5762C25.8431 6.30564 26.0596 6.08927 26.0596 5.82224V3.68659C26.0596 3.41956 25.8431 3.20319 25.5762 3.20319H19.653V0.483398C19.653 0.216369 19.4366 0 19.1696 0H13.8306C13.5637 0 13.3472 0.216369 13.3472 0.483398V3.20319H7.42405C7.15708 3.20319 6.94065 3.41956 6.94065 3.68659V5.82224C6.94065 6.08927 7.15708 6.30564 7.42405 6.30564H8.00844V7.47431H7.95791C7.69095 7.47431 7.47451 7.69068 7.47451 7.95771V12.2288C7.47451 12.4958 7.69095 12.7122 7.95791 12.7122C8.22488 12.7122 8.44131 12.4958 8.44131 12.2288V8.4411H24.5589V16.4986C24.5589 16.4991 24.5588 16.4995 24.5588 16.4999C24.5588 16.5003 24.5589 16.5007 24.5589 16.5011V27.1763C24.5589 27.1768 24.5588 27.1772 24.5588 27.1776C24.5588 27.1779 24.5589 27.1784 24.5589 27.1788V32.0332H22.8563V30.8642H23.1737C23.4406 30.8642 23.6571 30.6478 23.6571 30.3808V27.1776C23.6571 26.9106 23.4406 26.6942 23.1737 26.6942H21.572C21.3051 26.6942 21.0886 26.9106 21.0886 27.1776V30.3808C21.0886 30.6478 21.3051 30.8642 21.572 30.8642H21.8895V32.0332H20.1868V26.5934H20.7712C21.0382 26.5934 21.2546 26.377 21.2546 26.11V23.9744C21.2546 23.7073 21.0382 23.491 20.7712 23.491H12.2291C11.9621 23.491 11.7457 23.7073 11.7457 23.9744V26.11C11.7457 26.377 11.9621 26.5934 12.2291 26.5934H12.8134V32.0332H11.1108V30.8642H11.4282C11.6952 30.8642 11.9116 30.6478 11.9116 30.3808V27.1776C11.9116 26.9106 11.6952 26.6942 11.4282 26.6942H9.82654C9.55957 26.6942 9.34314 26.9106 9.34314 27.1776V30.3808C9.34314 30.6478 9.55957 30.8642 9.82654 30.8642H10.144V32.0332H8.44131V14.1604C8.44131 13.8933 8.22488 13.677 7.95791 13.677C7.69095 13.677 7.47451 13.8933 7.47451 14.1604V16.0165H1.55121C1.28424 16.0165 1.06781 16.2328 1.06781 16.4999V27.1776C1.06781 27.4447 1.28424 27.661 1.55121 27.661H2.1356V32.5166C2.1356 32.7836 2.35204 33 2.619 33H7.95785H13.2968H19.7034H25.0423H30.3812C30.6481 33 30.8646 32.7836 30.8646 32.5166V27.661H31.4489C31.7159 27.661 31.9323 27.4447 31.9323 27.1776V16.4999C31.9323 16.2328 31.7159 16.0165 31.4489 16.0165ZM7.47445 32.0332H3.1024V27.661H7.47445V32.0332ZM7.47451 26.6942H2.03461V16.9833H7.47451V26.6942ZM10.9448 29.8974H10.3099V27.661H10.9448V29.8974ZM16.0001 32.0332H13.7802V26.5934H16.0001V32.0332ZM19.22 32.0332H16.9668V26.5934H19.22V32.0332ZM13.2968 25.6266H12.7125V24.4578H20.2879V25.6266H19.7034H13.2968ZM22.6903 29.8974H22.0554V27.661H22.6903V29.8974ZM14.314 0.966797H18.6862V3.68537C18.6862 3.68575 18.6861 3.6862 18.6861 3.68659C18.6861 3.68698 18.6862 3.68743 18.6862 3.68781V5.33878H14.314V0.966797ZM8.49178 5.33872C8.49094 5.33872 8.4901 5.33885 8.48926 5.33885H7.90738V4.16999H7.90745H13.3472V5.33885H8.49429C8.49345 5.33885 8.49262 5.33872 8.49178 5.33872ZM24.025 7.47431H8.97524V6.30564H13.8294C13.8299 6.30564 13.8302 6.30571 13.8306 6.30571H19.1696C19.17 6.30571 19.1704 6.30564 19.1708 6.30564H24.025V7.47431ZM24.5109 5.33885C24.5101 5.33885 24.5092 5.33872 24.5084 5.33872C24.5075 5.33872 24.5067 5.33885 24.5059 5.33885H19.653V4.16999H25.0928V5.33885H24.5109ZM29.8978 32.0332H25.5257V27.661H29.8978V32.0332ZM30.9656 26.6942H25.5257V16.9833H30.9656V26.6942Z" fill="white"></path>
  <path d="M5.82194 18.152H3.68641C3.41944 18.152 3.20301 18.3683 3.20301 18.6354V20.771C3.20301 21.0379 3.41944 21.2544 3.68641 21.2544H5.82194C6.0889 21.2544 6.30534 21.038 6.30534 20.771V18.6354C6.30534 18.3683 6.0889 18.152 5.82194 18.152ZM5.33854 20.2876H4.16981V19.1188H5.33854V20.2876Z" fill="white"></path>
  <path d="M12.2287 18.152H10.0932C9.82622 18.152 9.60979 18.3683 9.60979 18.6354V20.771C9.60979 21.038 9.82622 21.2544 10.0932 21.2544H12.2287C12.4957 21.2544 12.7121 21.038 12.7121 20.771V18.6354C12.7121 18.3683 12.4957 18.152 12.2287 18.152ZM11.7453 20.2876H10.5766V19.1188H11.7453V20.2876Z" fill="white"></path>
  <path d="M22.9065 18.152H20.771C20.504 18.152 20.2876 18.3683 20.2876 18.6354V20.771H20.2875C20.2875 21.038 20.504 21.2544 20.7709 21.2544H22.9065C23.1735 21.2544 23.3899 21.038 23.3899 20.771V18.6354C23.3899 18.3683 23.1735 18.152 22.9065 18.152ZM22.4231 20.2876H21.2544V19.1188H22.4231V20.2876Z" fill="white"></path>
  <path d="M17.5514 18.152H15.4158C15.1488 18.152 14.9324 18.3683 14.9324 18.6354V20.771C14.9324 21.038 15.1488 21.2544 15.4158 21.2544H17.5514C17.8183 21.2544 18.0348 21.038 18.0348 20.771V18.6354C18.0348 18.3683 17.8183 18.152 17.5514 18.152ZM17.068 20.2876H15.8992V19.1188H17.068V20.2876Z" fill="white"></path>
  <path d="M12.2287 13.881H10.0932C9.82622 13.881 9.60979 14.0973 9.60979 14.3644V16.4999C9.60979 16.7669 9.82622 16.9833 10.0932 16.9833H12.2287C12.4957 16.9833 12.7121 16.7669 12.7121 16.4999V14.3644C12.7121 14.0973 12.4957 13.881 12.2287 13.881ZM11.7453 16.0165H10.5766V14.8478H11.7453V16.0165Z" fill="white"></path>
  <path d="M22.9065 13.881H20.771C20.504 13.881 20.2876 14.0973 20.2876 14.3644V16.4999H20.2875C20.2875 16.7669 20.504 16.9833 20.7709 16.9833H22.9065C23.1735 16.9833 23.3899 16.7669 23.3899 16.4999V14.3644C23.3899 14.0973 23.1735 13.881 22.9065 13.881ZM22.4231 16.0165H21.2544V14.8478H22.4231V16.0165Z" fill="white"></path>
  <path d="M17.5514 13.881H15.4158C15.1488 13.881 14.9324 14.0973 14.9324 14.3644V16.4999C14.9324 16.7669 15.1488 16.9833 15.4158 16.9833H17.5514C17.8183 16.9833 18.0348 16.7669 18.0348 16.4999V14.3644C18.0348 14.0973 17.8183 13.881 17.5514 13.881ZM17.068 16.0165H15.8992V14.8478H17.068V16.0165Z" fill="white"></path>
  <path d="M12.2287 9.60986H10.0932C9.82622 9.60986 9.60979 9.82623 9.60979 10.0933V12.2289C9.60979 12.4959 9.82622 12.7122 10.0932 12.7122H12.2287C12.4957 12.7122 12.7121 12.4959 12.7121 12.2289V10.0933C12.7121 9.82623 12.4957 9.60986 12.2287 9.60986ZM11.7453 11.7455H10.5766V10.5767H11.7453V11.7455Z" fill="white"></path>
  <path d="M22.9066 9.60986H20.771C20.5041 9.60986 20.2876 9.82623 20.2876 10.0933V12.2289C20.2876 12.4959 20.504 12.7122 20.771 12.7122H22.9066C23.1735 12.7122 23.39 12.4959 23.39 12.2289V10.0933C23.39 9.82623 23.1735 9.60986 22.9066 9.60986ZM22.4232 11.7455H21.2544V10.5767H22.4232V11.7455Z" fill="white"></path>
  <path d="M17.5514 9.60986H15.4158C15.1488 9.60986 14.9324 9.82623 14.9324 10.0933V12.2289C14.9324 12.4959 15.1487 12.7122 15.4158 12.7122H17.5514C17.8183 12.7122 18.0348 12.4959 18.0348 12.2289V10.0933C18.0348 9.82623 17.8183 9.60986 17.5514 9.60986ZM17.068 11.7455H15.8992V10.5767H17.068V11.7455Z" fill="white"></path>
  <path d="M29.3133 18.152H27.1777C26.9108 18.152 26.6944 18.3683 26.6944 18.6354V20.771C26.6944 21.0379 26.9108 21.2544 27.1777 21.2544H29.3133C29.5802 21.2544 29.7967 21.038 29.7967 20.771V18.6354C29.7967 18.3683 29.5802 18.152 29.3133 18.152ZM28.8299 20.2876H27.6611V19.1188H28.8299V20.2876Z" fill="white"></path>
  <path d="M5.82194 22.4232H3.68641C3.41944 22.4232 3.20301 22.6396 3.20301 22.9066V25.0422C3.20301 25.3092 3.41944 25.5256 3.68641 25.5256H5.82194C6.0889 25.5256 6.30534 25.3092 6.30534 25.0422V22.9066C6.30534 22.6396 6.0889 22.4232 5.82194 22.4232ZM5.33854 24.5588H4.16981V23.39H5.33854V24.5588Z" fill="white"></path>
  <path d="M29.3133 22.4232H27.1777C26.9108 22.4232 26.6944 22.6396 26.6944 22.9066V25.0422C26.6944 25.3092 26.9108 25.5256 27.1777 25.5256H29.3133C29.5802 25.5256 29.7967 25.3092 29.7967 25.0422V22.9066C29.7967 22.6396 29.5802 22.4232 29.3133 22.4232ZM28.8299 24.5588H27.6611V23.39H28.8299V24.5588Z" fill="white"></path>
</svg>