<?xml version="1.0" encoding="UTF-8"?>
<svg xmlns="http://www.w3.org/2000/svg" width="32" height="30" viewBox="0 0 32 30" fill="none">
  <path d="M30.4233 28.1326H29.4896V3.41983C29.4896 1.5344 28.0934 0 26.3772 0H17.8182C16.1021 0 14.7059 1.5344 14.7059 3.41983V7.95824C14.4556 7.89974 14.1979 7.85862 13.9278 7.85862H5.36883C3.65271 7.85862 2.25646 9.11664 2.25646 10.6641V28.1325H0.933719C0.418271 28.1326 0 28.5509 0 29.0663C0 29.5817 0.418271 30 0.933719 30H30.4233C30.9387 30 31.357 29.5817 31.357 29.0663C31.357 28.5508 30.9388 28.1326 30.4233 28.1326ZM4.74632 10.6641C4.74632 10.5726 4.9648 10.3486 5.36883 10.3486H13.9278C14.3318 10.3486 14.5503 10.572 14.5503 10.6641V28.1326H4.74632V10.6641ZM17.1958 3.41983C17.1958 2.87146 17.5239 2.48987 17.8183 2.48987H26.3773C26.6718 2.48987 26.9998 2.87146 26.9998 3.41983V28.1326H17.1958V3.41983Z" fill="white"></path>
  <path d="M20.5851 3.54248H19.0458C18.5484 3.54248 18.1444 3.94582 18.1444 4.44381V5.98318C18.1444 6.48056 18.5478 6.88451 19.0458 6.88451H20.5851C21.0825 6.88451 21.4865 6.48117 21.4865 5.98318V4.44381C21.4865 3.94582 21.0825 3.54248 20.5851 3.54248Z" fill="white"></path>
  <path d="M20.5851 7.89978H19.0458C18.5484 7.89978 18.1444 8.30312 18.1444 8.80111V10.3405C18.1444 10.8379 18.5478 11.2418 19.0458 11.2418H20.5851C21.0825 11.2418 21.4865 10.8385 21.4865 10.3405V8.80111C21.4865 8.30312 21.0825 7.89978 20.5851 7.89978Z" fill="white"></path>
  <path d="M20.5851 12.2571H19.0458C18.5484 12.2571 18.1444 12.6604 18.1444 13.1584V14.6978C18.1444 15.1952 18.5478 15.5991 19.0458 15.5991H20.5851C21.0825 15.5991 21.4865 15.1958 21.4865 14.6978V13.1584C21.4865 12.6604 21.0825 12.2571 20.5851 12.2571Z" fill="white"></path>
  <path d="M25.1497 3.54248H23.6104C23.113 3.54248 22.709 3.94582 22.709 4.44381V5.98318C22.709 6.48056 23.1124 6.88451 23.6104 6.88451H25.1497C25.6471 6.88451 26.0511 6.48117 26.0511 5.98318V4.44381C26.0511 3.94582 25.6477 3.54248 25.1497 3.54248Z" fill="white"></path>
  <path d="M25.1497 7.89978H23.6104C23.113 7.89978 22.709 8.30312 22.709 8.80111V10.3405C22.709 10.8379 23.1124 11.2418 23.6104 11.2418H25.1497C25.6471 11.2418 26.0511 10.8385 26.0511 10.3405V8.80111C26.0511 8.30312 25.6477 7.89978 25.1497 7.89978Z" fill="white"></path>
  <path d="M25.1497 12.2571H23.6104C23.113 12.2571 22.709 12.6604 22.709 13.1584V14.6978C22.709 15.1952 23.1124 15.5991 23.6104 15.5991H25.1497C25.6471 15.5991 26.0511 15.1958 26.0511 14.6978V13.1584C26.0511 12.6604 25.6477 12.2571 25.1497 12.2571Z" fill="white"></path>
  <path d="M20.5851 16.6144H19.0458C18.5484 16.6144 18.1444 17.0177 18.1444 17.5157V19.0551C18.1444 19.5525 18.5478 19.9564 19.0458 19.9564H20.5851C21.0825 19.9564 21.4865 19.5531 21.4865 19.0551V17.5157C21.4865 17.0177 21.0825 16.6144 20.5851 16.6144Z" fill="white"></path>
  <path d="M20.5851 20.9717H19.0458C18.5484 20.9717 18.1444 21.375 18.1444 21.873V23.4124C18.1444 23.9098 18.5478 24.3137 19.0458 24.3137H20.5851C21.0825 24.3137 21.4865 23.9104 21.4865 23.4124V21.873C21.4865 21.375 21.0825 20.9717 20.5851 20.9717Z" fill="white"></path>
  <path d="M25.1497 16.6144H23.6104C23.113 16.6144 22.709 17.0177 22.709 17.5157V19.0551C22.709 19.5525 23.1124 19.9564 23.6104 19.9564H25.1497C25.6471 19.9564 26.0511 19.5531 26.0511 19.0551V17.5157C26.0511 17.0177 25.6477 16.6144 25.1497 16.6144Z" fill="white"></path>
  <path d="M25.1497 20.9717H23.6104C23.113 20.9717 22.709 21.375 22.709 21.873V23.4124C22.709 23.9098 23.1124 24.3137 23.6104 24.3137H25.1497C25.6471 24.3137 26.0511 23.9104 26.0511 23.4124V21.873C26.0511 21.375 25.6477 20.9717 25.1497 20.9717Z" fill="white"></path>
  <path d="M8.13569 12.2571H6.59639C6.09902 12.2571 5.69507 12.6604 5.69507 13.1584V14.6978C5.69507 15.1952 6.09841 15.5991 6.59639 15.5991H8.13577C8.63315 15.5991 9.0371 15.1958 9.0371 14.6978V13.1584C9.0371 12.6604 8.63307 12.2571 8.13569 12.2571Z" fill="white"></path>
  <path d="M12.7003 12.2571H11.1609C10.6635 12.2571 10.2596 12.6604 10.2596 13.1584V14.6978C10.2596 15.1952 10.6629 15.5991 11.1609 15.5991H12.7003C13.1977 15.5991 13.6016 15.1958 13.6016 14.6978V13.1584C13.6016 12.6604 13.1983 12.2571 12.7003 12.2571Z" fill="white"></path>
  <path d="M8.13569 16.6144H6.59639C6.09902 16.6144 5.69507 17.0177 5.69507 17.5157V19.0551C5.69507 19.5525 6.09841 19.9564 6.59639 19.9564H8.13577C8.63315 19.9564 9.0371 19.5531 9.0371 19.0551V17.5157C9.0371 17.0177 8.63307 16.6144 8.13569 16.6144Z" fill="white"></path>
  <path d="M8.13569 20.9717H6.59639C6.09902 20.9717 5.69507 21.375 5.69507 21.873V23.4124C5.69507 23.9098 6.09841 24.3137 6.59639 24.3137H8.13577C8.63315 24.3137 9.0371 23.9104 9.0371 23.4124V21.873C9.0371 21.375 8.63307 20.9717 8.13569 20.9717Z" fill="white"></path>
  <path d="M12.7003 16.6144H11.1609C10.6635 16.6144 10.2596 17.0177 10.2596 17.5157V19.0551C10.2596 19.5525 10.6629 19.9564 11.1609 19.9564H12.7003C13.1977 19.9564 13.6016 19.5531 13.6016 19.0551V17.5157C13.6016 17.0177 13.1983 16.6144 12.7003 16.6144Z" fill="white"></path>
  <path d="M12.7003 20.9717H11.1609C10.6635 20.9717 10.2596 21.375 10.2596 21.873V23.4124C10.2596 23.9098 10.6629 24.3137 11.1609 24.3137H12.7003C13.1977 24.3137 13.6016 23.9104 13.6016 23.4124V21.873C13.6016 21.375 13.1983 20.9717 12.7003 20.9717Z" fill="white"></path>
</svg>
