<?xml version="1.0" encoding="UTF-8"?>
<svg xmlns="http://www.w3.org/2000/svg" width="33" height="33" viewBox="0 0 33 33" fill="none">
  <path d="M19.1565 2.6395C19.0148 2.4208 18.9693 2.27301 18.9693 2.27301L19.0369 2.21089C19.0369 2.21089 19.1682 2.26546 19.3977 2.35951C19.506 2.40272 19.6386 2.45577 19.7906 2.5156C19.9403 2.56983 20.1033 2.63306 20.2779 2.67544C20.3639 2.7021 20.4515 2.72862 20.5421 2.7388C20.5876 2.74483 20.631 2.75736 20.6762 2.76567C20.7209 2.76872 20.7658 2.77018 20.8104 2.77585C20.9908 2.80009 21.1567 2.78049 21.3385 2.77101C21.4229 2.73998 21.5166 2.73126 21.6084 2.69178C21.6925 2.64213 21.8024 2.61332 21.8804 2.54968C21.9218 2.52128 21.9647 2.49171 22.0108 2.46249C22.0585 2.43562 22.1094 2.41436 22.1601 2.35944L22.4815 2.08963C22.4845 2.08548 22.4627 2.11726 22.4732 2.10244L22.4754 2.10016L22.4808 2.09531L22.4914 2.08624L22.5126 2.06733L22.5549 2.02945L22.6392 1.95556L22.7983 1.80473C22.8983 1.70168 23.0241 1.62135 23.125 1.52204C23.2243 1.41927 23.3577 1.35639 23.4639 1.25673C23.5775 1.16726 23.7102 1.10022 23.8383 1.01345C24.1073 0.886858 24.4217 0.792883 24.7032 0.832356C24.7738 0.839905 24.8423 0.850916 24.9098 0.863381C24.975 0.881526 25.0363 0.903963 25.097 0.926678C25.2212 0.967676 25.3282 1.02633 25.4291 1.0843C25.6305 1.20071 25.7906 1.33554 25.9186 1.46595C26.0458 1.59669 26.1415 1.72405 26.2103 1.83506C26.2824 1.94372 26.3241 2.0397 26.3535 2.10528C26.3778 2.17274 26.3906 2.20909 26.3906 2.20909L26.3232 2.27197C26.3232 2.27197 26.1785 2.22308 25.9563 2.13021C25.8481 2.08707 25.7168 2.03292 25.5661 1.97225C25.4206 1.91235 25.2606 1.84642 25.0915 1.78922C25.0074 1.75812 24.9203 1.72592 24.8324 1.70466C24.7877 1.69372 24.7438 1.6762 24.6989 1.66338C24.6542 1.65431 24.6096 1.64289 24.5647 1.62814C24.3832 1.56899 24.1957 1.51068 23.9635 1.48644C23.8568 1.5005 23.7295 1.49593 23.6185 1.54219C23.5118 1.59635 23.3892 1.63804 23.3036 1.7343C23.2172 1.8271 23.1187 1.90826 23.0581 2.02647L22.9701 2.20265L22.9297 2.29137L22.91 2.33534L22.9003 2.35806L22.8955 2.36824L22.8932 2.37357L22.8916 2.37696C22.9004 2.36408 22.8781 2.39746 22.8796 2.39552L22.7064 2.77752C22.6495 2.90072 22.5191 3.03978 22.4127 3.16214C22.3047 3.29552 22.16 3.37212 22.0312 3.47669C21.8964 3.57143 21.7317 3.626 21.581 3.69456C21.2603 3.78618 20.9253 3.80259 20.6434 3.72717C20.4994 3.69539 20.3669 3.65363 20.2502 3.59303C20.1279 3.54144 20.0226 3.4771 19.9233 3.41492C19.7259 3.28424 19.5695 3.14587 19.4459 3.0102C19.3195 2.87897 19.226 2.7494 19.1565 2.6395ZM33 24.3096V32.1767H0V24.3096H2.24786V15.4723L8.58238 11.0279V15.4723L14.9159 11.0279V15.4723L21.2508 11.0279V19.7636H23.4364L24.6234 4.3107H28.2462L29.2851 19.7636H31.7225V24.3102H32.9999V24.3096H33ZM10.3446 20.9124H5.36436V25.5099H10.3446V20.9124ZM18.9262 20.9124H13.9458V25.5099H18.9262V20.9124ZM27.6156 20.9124H22.6354V25.5099H27.6156V20.9124Z" fill="white"></path>
</svg>
