<?xml version="1.0" encoding="UTF-8"?>
<svg xmlns="http://www.w3.org/2000/svg" width="39" height="27" viewBox="0 0 39 27" fill="none">
  <path d="M11.5865 16.317C13.2413 18.6575 14.6818 20.8013 16.2392 22.8665C16.8622 23.6926 16.7843 24.1843 15.9472 24.735C15.2075 25.207 14.5261 25.7774 13.8837 26.3674C13.2607 26.9378 12.8908 26.8198 12.4236 26.1511C10.3211 23.1418 8.17973 20.172 6.09672 17.1627C5.66844 16.5334 5.20122 16.258 4.442 16.199C1.89177 16.0023 -0.093906 13.7405 0.00343096 11.2426C0.120235 8.50875 2.22271 6.4436 4.90921 6.4436C6.75861 6.4436 8.60802 6.40426 10.4574 6.4436C16.0835 6.62061 20.7946 4.41778 24.9606 0.798843C25.1553 0.62183 25.3694 0.444816 25.5446 0.287471C25.9924 -0.046887 26.5375 -0.066555 26.8684 0.110458C27.2383 0.30714 27.6082 0.857848 27.6471 1.31021C27.7639 2.41163 27.6861 3.53271 27.6861 4.6538C27.6861 10.0625 27.6861 15.4713 27.6861 20.88C27.6861 21.6077 27.6666 22.3158 26.8879 22.6108C26.1676 22.8862 25.6225 22.5125 25.0774 22.0208C21.5733 18.8935 17.5825 16.789 12.8519 16.317C12.5404 16.2777 12.2095 16.317 11.5865 16.317ZM25.019 18.4018C25.019 13.6225 25.019 9.05946 25.019 4.43745C24.8049 4.51612 24.6881 4.51612 24.5907 4.59479C22.2936 6.20758 19.8212 7.46634 17.1542 8.33174C16.9206 8.41041 16.6675 8.90212 16.648 9.19714C16.5896 10.5739 16.6675 11.9507 16.6091 13.3274C16.5896 14.0355 16.8427 14.3109 17.4851 14.5862C19.5098 15.4516 21.476 16.435 23.4422 17.3988C23.9483 17.6151 24.3961 17.9888 25.019 18.4018ZM4.14998 13.3471C5.35696 13.3668 6.23299 12.462 6.23299 11.2623C6.23299 10.1412 5.33749 9.17747 4.22785 9.13813C3.15715 9.0988 2.06697 10.1215 2.04751 11.223C2.02804 12.344 3.00141 13.3471 4.14998 13.3471Z" fill="white"></path>
  <path d="M32.6891 17.6346C32.2219 17.1626 31.7547 16.7102 31.307 16.2382C31.0344 15.9629 30.7229 15.6875 30.3725 15.6875C30.1389 15.6875 29.9248 15.7858 29.7301 16.0022C29.0877 16.6709 29.6133 17.2216 29.9832 17.5756L30.0026 17.5953C31.4043 19.0114 33.0785 20.7029 34.8111 22.4337L34.85 22.473C35.0447 22.6697 35.2978 22.9254 35.7066 22.9254H35.726C36.1349 22.9254 36.4463 22.6107 36.5437 22.3747C36.6994 21.9813 36.5826 21.5683 36.1933 21.1552C35.0058 19.9752 33.8182 18.7951 32.6891 17.6346Z" fill="white"></path>
  <path d="M30.2563 7.19092C30.6456 7.19092 30.996 6.8959 31.3075 6.58121C32.6702 5.22411 34.2666 3.59165 35.9018 1.93953C35.9408 1.90019 35.9602 1.88052 35.9992 1.84119C36.2328 1.60517 36.5637 1.29048 36.5443 0.877446C36.5248 0.503752 36.2328 0.130057 35.8434 0.0317163C35.3762 -0.105961 34.9285 0.248066 34.5975 0.582424C33.4489 1.68384 32.3004 2.84426 31.2102 3.96534C30.8014 4.37838 30.3926 4.79141 29.9837 5.20444C29.5944 5.5978 28.9909 6.20751 29.6333 6.8959C29.8085 7.09258 30.0227 7.19092 30.2563 7.19092Z" fill="white"></path>
  <path d="M37.4004 10.4361C35.1422 10.3771 32.8645 10.3771 30.5868 10.4361C30.2753 10.4361 29.4188 10.4754 29.4188 11.3802C29.4188 12.1866 30.3143 12.2652 30.6647 12.2849C31.1514 12.3242 31.638 12.3439 32.1247 12.3439C32.4362 12.3439 32.7672 12.3439 33.0786 12.3242C33.3901 12.3242 33.6821 12.3046 33.9936 12.3046C34.3051 12.3046 34.636 12.3046 34.9475 12.3046C35.7457 12.3242 36.5828 12.3242 37.4004 12.2652H37.4393C37.7703 12.2456 38.549 12.1866 38.549 11.3802C38.5295 10.4754 37.6729 10.4558 37.4004 10.4361Z" fill="white"></path>
</svg>