<?xml version="1.0" encoding="UTF-8"?>
<svg xmlns="http://www.w3.org/2000/svg" width="33" height="28" viewBox="0 0 33 28" fill="none">
  <path d="M23.4208 21.6509C23.6914 21.0888 23.5665 20.4642 23.0877 20.2144C24.6282 19.4233 26.5227 18.4032 28.1049 17.6746C28.4588 17.5081 29.0833 17.3623 29.4164 17.6538C29.4997 17.7163 29.5829 17.9244 29.4788 17.9869C27.6052 19.1111 25.3777 20.4434 23.4208 21.6509Z" fill="white"></path>
  <path d="M20.9425 19.1527C22.6496 18.5489 25.7514 17.0084 26.4592 17.2166C26.605 17.2374 26.6258 17.4248 26.5633 17.4664C25.3351 18.0701 23.6905 18.9445 22.4206 19.4441C21.9001 19.2151 21.4421 19.1735 20.9425 19.1527Z" fill="white"></path>
  <path d="M0.374724 26.0642C0.41636 26.8136 0.811903 27.5006 1.47808 27.5631C3.08107 27.7088 4.76733 28.1044 6.24541 27.001C6.32868 26.9385 6.49522 26.8969 6.59931 26.9177C10.8462 27.23 15.0722 27.5423 19.3191 27.8337C20.9846 27.9586 22.5875 27.688 23.9824 26.772C26.8136 24.8776 29.6032 22.8999 32.372 20.9013C33.3088 20.2143 33.1631 18.8403 32.1638 18.3199C31.5185 17.966 30.9356 18.1533 30.3527 18.5281C28.0835 19.9021 25.8352 21.3177 23.5244 22.6292C22.8374 23.0039 22.0255 23.2746 21.2344 23.3162C19.5898 23.4203 17.9243 23.3995 16.2797 23.3578C16.0299 23.3578 15.5094 23.2538 15.5094 22.9623C15.5094 22.6917 16.0091 22.65 16.2589 22.6292C17.8202 22.5876 19.4024 22.5876 20.9637 22.5459C22.0255 22.5251 22.5667 22.0671 22.5876 21.2344C22.6084 20.4017 22.0879 19.9437 21.0262 19.8812C18.1949 19.6939 15.4053 19.34 12.7198 18.3615C10.8878 17.6953 8.99338 17.6329 7.09895 18.1325C6.45359 18.2991 5.99559 18.4656 5.49596 18.0076C5.14205 17.6745 4.91305 17.7162 4.37178 17.737C3.47661 17.7786 2.58143 17.8203 1.68626 17.8619C0.624541 17.9243 0 18.5697 0 19.6522L0.374724 26.0642ZM3.06025 26.0642C2.68552 26.0642 2.37325 25.7519 2.37325 25.3772C2.37325 25.0025 2.68552 24.6902 3.06025 24.6902C3.43497 24.6902 3.74724 25.0025 3.74724 25.3772C3.74724 25.7519 3.45579 26.0642 3.06025 26.0642Z" fill="white"></path>
  <path d="M27.8967 8.13984C27.7926 7.55694 27.5012 7.36958 26.6684 7.24467L26.3145 7.18222C25.2528 6.78667 24.9197 5.6625 25.6275 4.64242C26.1896 3.83052 26.148 3.47661 25.4402 2.74798C24.4825 1.76953 24.1911 1.70708 23.3167 2.3108C22.1301 3.10188 20.9227 2.58143 20.652 1.16581C20.4647 0.166544 20.2149 0 19.0699 0C17.8208 0 17.571 0.166544 17.3836 1.14499C17.1962 2.10262 16.6342 2.66471 15.6557 2.7688C15.4059 2.78961 15.0936 2.58143 14.8646 2.41489C13.8445 1.70708 13.5739 1.7279 12.6579 2.66471C11.7836 3.53906 11.7627 3.78888 12.4914 4.80896L12.5538 4.87142C13.0743 5.78741 12.5122 7.07813 11.4713 7.24467C10.243 7.45285 10.0765 7.64021 10.0765 8.86847C10.0765 10.18 10.2638 10.3882 11.4713 10.6172C11.7627 10.6588 12.1166 10.7213 12.2832 10.9295C12.9077 11.6997 12.8869 12.4908 12.3456 13.3027C11.7836 14.1354 11.846 14.4269 12.7204 15.3012C13.5323 16.1131 13.8237 16.1548 14.6564 15.5927C15.8639 14.7808 17.0713 15.2596 17.3628 16.6752C17.571 17.7161 17.8208 17.8827 19.174 17.8619C20.194 17.8619 20.4855 17.6329 20.652 16.6544C20.881 15.3429 22.026 14.8016 23.1294 15.4262L23.2543 15.5511C24.0246 16.0923 24.3576 16.134 24.9614 15.6135C25.0655 15.5302 25.1904 15.4262 25.3153 15.2804C26.2104 14.3853 26.2521 14.1146 25.6275 13.1986C25.5443 13.0737 25.461 12.928 25.3985 12.8031C25.1695 12.2618 25.232 11.7205 25.5234 11.3042C25.5443 11.2834 25.5651 11.2625 25.5651 11.2417C25.5651 11.2209 25.5859 11.2209 25.5859 11.2209C25.6692 11.1168 25.7524 11.0335 25.8565 10.9711L25.8774 10.9503C25.919 10.9086 25.9606 10.8878 26.0231 10.867C26.2104 10.7629 26.4394 10.6796 26.6893 10.638C27.7718 10.4298 27.9383 10.2216 27.9383 8.95175C27.9383 8.57702 27.9383 8.34802 27.8967 8.13984ZM19.0699 11.9912C17.3211 12.012 15.9472 10.7005 15.9472 8.95175C15.9263 7.22385 17.2795 5.84986 19.0074 5.82904C20.7353 5.80823 22.1093 7.18222 22.1093 8.91011C22.0677 10.6172 20.7561 11.9704 19.0699 11.9912Z" fill="white"></path>
</svg>
