<?xml version="1.0" encoding="UTF-8"?>
<svg xmlns="http://www.w3.org/2000/svg" width="32" height="28" viewBox="0 0 32 28" fill="none">
  <path d="M31.3352 5.14424C31.1323 5.92019 30.9294 6.6674 30.7265 7.44334C29.9438 10.5184 29.1612 13.6222 28.3785 16.6972C28.2336 17.2433 27.8857 17.5019 27.277 17.5019C21.9723 17.5019 16.6677 17.5019 11.363 17.5019C11.1891 17.5019 10.9862 17.5019 10.7543 17.5019C10.9862 18.479 11.2471 19.4274 11.479 20.4045C11.5949 20.4045 11.7109 20.4045 11.8268 20.4045C16.6677 20.4045 21.5375 20.4045 26.3784 20.4045C26.5233 20.4045 26.6973 20.4045 26.8422 20.4333C27.335 20.5482 27.6538 20.9793 27.6249 21.4679C27.5669 21.9852 27.1611 22.3588 26.6393 22.3588C25.045 22.3588 23.4797 22.3588 21.8854 22.3588C18.262 22.3588 14.6386 22.3588 10.9862 22.3588C10.1745 22.3588 9.91364 22.1576 9.71073 21.3529C8.11643 15.0016 6.52213 8.65037 4.92783 2.27036C4.89885 2.18415 4.86986 2.06919 4.84087 1.95424C4.75391 1.95424 4.63796 1.95424 4.551 1.95424C3.39151 1.95424 2.23202 1.95424 1.07253 1.95424C0.463796 1.95424 0 1.55189 0 0.977118C0 0.402342 0.43481 0 1.04354 0C2.52189 0 4.02923 0 5.50758 0C6.11631 0 6.43517 0.258649 6.58011 0.862163C6.841 1.86802 7.07289 2.84514 7.33378 3.87973C7.44973 3.87973 7.56568 3.87973 7.65264 3.87973C15.1024 3.87973 22.5521 3.87973 30.0308 3.87973C30.6395 3.87973 31.0454 4.05217 31.3062 4.62694C31.3352 4.82811 31.3352 5.00055 31.3352 5.14424ZM7.85555 5.89145C8.17441 7.18469 8.49327 8.4492 8.81213 9.74244C9.94263 9.74244 11.0731 9.74244 12.2036 9.74244C12.0297 8.4492 11.8848 7.18469 11.7109 5.89145C10.4354 5.89145 9.15998 5.89145 7.85555 5.89145ZM25.2189 5.89145C25.045 7.18469 24.9001 8.4492 24.7261 9.74244C25.8856 9.74244 26.9871 9.74244 28.1176 9.74244C28.4365 8.4492 28.7554 7.18469 29.0742 5.89145C27.7698 5.89145 26.4944 5.89145 25.2189 5.89145ZM13.711 5.89145C13.8849 7.18469 14.0298 8.47794 14.2038 9.74244C15.3343 9.74244 16.4068 9.74244 17.4793 9.74244C17.4793 8.4492 17.4793 7.18469 17.4793 5.89145C16.2329 5.89145 14.9864 5.89145 13.711 5.89145ZM23.2188 5.89145C21.9434 5.89145 20.6969 5.89145 19.4505 5.89145C19.4505 7.18469 19.4505 8.4492 19.4505 9.74244C20.552 9.74244 21.6245 9.74244 22.726 9.74244C22.8999 8.4492 23.0739 7.18469 23.2188 5.89145ZM12.9573 15.5764C12.7834 14.2832 12.6384 12.9899 12.4645 11.7254C11.421 11.7254 10.3774 11.7254 9.3339 11.7254C9.65276 13.0187 9.97162 14.3119 10.2905 15.5764C11.1891 15.5764 12.0587 15.5764 12.9573 15.5764ZM26.6393 15.5764C26.9582 14.2832 27.277 13.0187 27.5959 11.7254C26.5233 11.7254 25.5088 11.7254 24.4653 11.7254C24.2913 13.0187 24.1464 14.2832 23.9725 15.5764C24.8711 15.5764 25.7407 15.5764 26.6393 15.5764ZM17.4793 11.7254C16.4648 11.7254 15.4502 11.7254 14.4357 11.7254C14.6096 13.0187 14.7545 14.2832 14.9284 15.5764C15.7981 15.5764 16.6387 15.5764 17.4793 15.5764C17.4793 14.2832 17.4793 13.0187 17.4793 11.7254ZM22.0013 15.5764C22.1753 14.2832 22.3202 13.0187 22.4941 11.7254C21.4506 11.7254 20.465 11.7254 19.4505 11.7254C19.4505 13.0187 19.4505 14.2832 19.4505 15.5764C20.3201 15.5764 21.1317 15.5764 22.0013 15.5764Z" fill="white"></path>
  <path d="M10.5223 25.2901C10.5223 24.198 11.3919 23.3359 12.4934 23.3646C13.566 23.3646 14.4646 24.2555 14.4356 25.3188C14.4356 26.3822 13.537 27.2443 12.4645 27.2443C11.3919 27.2156 10.5223 26.3534 10.5223 25.2901Z" fill="white"></path>
  <path d="M22.523 25.3189C22.523 24.2268 23.3927 23.3646 24.4652 23.3646C25.5377 23.3646 26.4363 24.2268 26.4363 25.3189C26.4363 26.3822 25.5377 27.2731 24.4652 27.2444C23.3927 27.2444 22.523 26.3822 22.523 25.3189Z" fill="white"></path>
</svg>