<?xml version="1.0" encoding="UTF-8"?>
<svg xmlns="http://www.w3.org/2000/svg" width="43" height="30" viewBox="0 0 43 30" fill="none">
  <path d="M1.49776 19.9884V1.82731C1.49776 0.818138 2.31583 0 3.32508 0H21.4769C22.4861 0 23.3041 0.818138 23.3041 1.82731V19.9885C23.3041 20.3249 23.0315 20.5976 22.695 20.5976H2.10687C1.7704 20.5976 1.49776 20.3249 1.49776 19.9884ZM16.1559 26.2101C16.1559 28.3032 14.459 30 12.366 30C10.2729 30 8.57602 28.3032 8.57602 26.2101C8.57602 24.1169 10.2729 22.4201 12.366 22.4201C14.459 22.4201 16.1559 24.1169 16.1559 26.2101ZM14.2609 26.2101C14.2609 25.1635 13.4125 24.3151 12.3659 24.3151C11.3193 24.3151 10.4709 25.1635 10.4709 26.2101C10.4709 27.2566 11.3193 28.1051 12.3659 28.1051C13.4125 28.1051 14.2609 27.2566 14.2609 26.2101ZM9.10171 22.4201H0.609106C0.272713 22.4201 0 22.6928 0 23.0292V24.8771C0 25.2135 0.272713 25.4862 0.609106 25.4862H7.41633C7.59405 24.2668 8.20957 23.1896 9.10171 22.4201ZM35.9854 26.2101C35.9854 28.3032 34.2885 30 32.1955 30C30.1024 30 28.4055 28.3032 28.4055 26.2101C28.4055 24.1169 30.1024 22.4201 32.1955 22.4201C34.2885 22.42 35.9854 24.1169 35.9854 26.2101ZM34.0905 26.2101C34.0905 25.1635 33.242 24.3151 32.1955 24.3151C31.1489 24.3151 30.3005 25.1635 30.3005 26.2101C30.3005 27.2566 31.1489 28.1051 32.1955 28.1051C33.242 28.1051 34.0905 27.2566 34.0905 26.2101ZM42.6855 23.0292V24.8771C42.6855 25.2135 42.4128 25.4862 42.0764 25.4862H37.145C36.7923 23.0672 34.7104 21.2018 32.1956 21.2018C29.6804 21.2018 27.5984 23.0672 27.2457 25.4862H17.3156C17.1378 24.2668 16.5224 23.1896 15.6302 22.4201H25.0457V4.99776C25.0457 4.32497 25.5912 3.77955 26.2639 3.77955H32.0143C33.6334 3.77955 35.1467 4.5838 36.0527 5.92568L39.7598 11.4163C40.3035 12.2216 40.5941 13.1712 40.5941 14.143V22.4201H42.0764C42.4128 22.4201 42.6855 22.6928 42.6855 23.0292ZM36.5064 11.5569L33.5421 7.34462C33.428 7.18253 33.2422 7.08607 33.044 7.08607H28.42C28.0837 7.08607 27.8109 7.35878 27.8109 7.69517V11.9074C27.8109 12.2439 28.0837 12.5165 28.42 12.5165H36.0084C36.5018 12.5165 36.7905 11.9604 36.5064 11.5569Z" fill="white"></path>
</svg>
